<svg width="35" height="35" viewBox="0 0 35 35" fill="none" xmlns="http://www.w3.org/2000/svg">
<circle cx="17.5" cy="17.5" r="17.5" fill="#43CE36"/>
<g clip-path="url(#clip0_4_76)">
<path d="M22.9605 11.9908C21.6025 10.6379 19.7958 9.89227 17.8731 9.89149C15.9546 9.89149 14.1451 10.6364 12.7781 11.9891C11.4087 13.344 10.6539 15.1447 10.6521 17.0528V17.055V17.0563C10.6523 18.2112 10.9557 19.3763 11.5317 20.4397L10.6718 24.348L14.6251 23.4488C15.6264 23.9534 16.7436 24.2194 17.8703 24.2199H17.8732C19.7913 24.2199 21.6008 23.4748 22.968 22.1221C24.3387 20.766 25.0938 18.9676 25.0947 17.0583C25.0953 15.1625 24.3374 13.3628 22.9605 11.9908ZM17.8731 23.0915H17.8705C16.8588 23.0911 15.8563 22.8371 14.9717 22.3568L14.7847 22.2553L12.156 22.8532L12.727 20.2582L12.6169 20.0684C12.0696 19.1246 11.7804 18.0827 11.7804 17.0551C11.7825 13.729 14.5154 11.0198 17.8729 11.0198C19.4949 11.0205 21.0189 11.6493 22.1642 12.7901C23.3268 13.9487 23.9669 15.4643 23.9663 17.058C23.965 20.3849 21.2315 23.0915 17.8731 23.0915Z" fill="white"/>
<path d="M15.9081 13.8971H15.5916C15.4814 13.8971 15.3025 13.9383 15.1512 14.103C14.9997 14.2678 14.573 14.666 14.573 15.476C14.573 16.286 15.1649 17.0687 15.2474 17.1787C15.3301 17.2885 16.3901 19.0038 18.069 19.6637C19.4643 20.2121 19.7483 20.103 20.0511 20.0755C20.354 20.0482 21.0284 19.6774 21.1661 19.293C21.3037 18.9086 21.3037 18.5791 21.2625 18.5102C21.2211 18.4416 21.1109 18.4005 20.9458 18.3182C20.7806 18.2358 19.971 17.8308 19.8196 17.7758C19.6682 17.721 19.5581 17.6935 19.4479 17.8584C19.3377 18.023 19.0133 18.4037 18.9169 18.5136C18.8207 18.6235 18.7243 18.6373 18.559 18.5549C18.3938 18.4723 17.8673 18.2954 17.2363 17.7347C16.7451 17.2982 16.4043 16.7417 16.3079 16.5769C16.2116 16.4122 16.2977 16.3231 16.3805 16.2409C16.4547 16.1673 16.555 16.0664 16.6376 15.9704C16.7201 15.8742 16.7436 15.8056 16.7987 15.6957C16.8538 15.5859 16.8262 15.4897 16.785 15.4074C16.7436 15.325 16.4266 14.511 16.2797 14.1854H16.2798C16.1561 13.9112 16.0258 13.9019 15.9081 13.8971Z" fill="white"/>
</g>
<defs>
<clipPath id="clip0_4_76">
<rect width="14.4565" height="14.4565" fill="white" transform="translate(10.6521 9.89149)"/>
</clipPath>
</defs>
</svg>
